<?xml version="1.0" encoding="UTF-8"?>
<svg version="1.1" xmlns="http://www.w3.org/2000/svg" width="263" height="216">
<path d="M0 0 C3.88519767 2.54688705 5.55735051 5.67205153 7 10 C7.39614654 15.24894167 6.86557317 18.55342094 4 23 C2.35972515 24.36566979 0.69577236 25.70388594 -1 27 C-0.79503906 27.83402344 -0.59007812 28.66804688 -0.37890625 29.52734375 C-0.10949219 30.65269531 0.15992188 31.77804688 0.4375 32.9375 C0.70433594 34.03964844 0.97117187 35.14179687 1.24609375 36.27734375 C2 40 2 40 2.34765625 43.8515625 C3.04778078 50.71365718 4.83227374 57.4003596 6.43847656 64.09545898 C7.00415055 66.4548114 7.5612709 68.81606584 8.1171875 71.17773438 C8.47346487 72.67980463 8.83021829 74.18176207 9.1875 75.68359375 C9.35419189 76.38874619 9.52088379 77.09389862 9.69262695 77.82041931 C10.56844647 81.50643824 10.56844647 81.50643824 12 85 C12.38027344 84.06285156 12.76054687 83.12570313 13.15234375 82.16015625 C15.73415769 76.13390233 18.95927076 70.42030068 22.06054688 64.65039062 C24.45536049 60.14269679 26.42582874 55.86378555 28 51 C29.26597045 48.40925046 30.66002678 45.89393222 32.0625 43.375 C35.19374822 37.94816132 35.19374822 37.94816132 37 32 C35.98810122 30.35933729 35.98810122 30.35933729 34.5 28.875 C32.09392815 25.7652024 31.65156469 23.79639853 31.9375 19.875 C32.65576912 15.57191502 33.57954975 12.89422714 37 10 C42.48577193 6.8982886 46.92538647 6.50624257 53 8 C56.53798555 10.23046915 58.43696353 12.15725095 60 16 C60.62535941 20.35776765 61.01372641 24.95235342 59.01953125 28.98046875 C56.80354946 31.74192298 54.36961139 33.8767962 51 35 C50.01 35 49.02 35 48 35 C46.68 55.13 45.36 75.26 44 96 C44.99 94.68 45.98 93.36 47 92 C47.66 92 48.32 92 49 92 C49.22300781 91.44828125 49.44601563 90.8965625 49.67578125 90.328125 C51.41554097 87.2694324 53.65764482 85.1926188 56.1875 82.75 C59.93217087 79.08682688 63.51345651 75.36652175 66.90625 71.375 C68.72403794 69.31303159 70.58013557 67.30914958 72.46875 65.3125 C73.4136731 64.31234863 73.4136731 64.31234863 74.37768555 63.29199219 C75.64878153 61.95048471 76.9235805 60.61247434 78.20239258 59.27832031 C78.79173584 58.65538086 79.3810791 58.03244141 79.98828125 57.390625 C80.51977783 56.83407227 81.05127441 56.27751953 81.59887695 55.70410156 C83.0807018 53.90184726 84.03809141 52.11880257 85 50 C84.34 50 83.68 50 83 50 C81.30757601 47.04497399 80.72671199 44.90004978 80.75 41.5 C80.74226563 40.37078125 80.74226563 40.37078125 80.734375 39.21875 C81.02749596 36.7703279 81.78183231 35.12695946 83 33 C83.66 33 84.32 33 85 33 C85 32.01 85 31.02 85 30 C89.79139275 27.12516435 93.53680462 26.20237347 99 27 C103.6489842 28.69866731 106.66153882 30.59290008 109 35 C109.95730337 45.08539326 109.95730337 45.08539326 108 49 C107.34 49 106.68 49 106 49 C105.89764038 49.9593042 105.89764038 49.9593042 105.79321289 50.93798828 C105.53145264 51.61845215 105.26969238 52.29891602 105 53 C102.92358398 53.62060547 102.92358398 53.62060547 100.30859375 53.9921875 C96.81902492 54.915367 95.37176771 55.49914488 93.19580078 58.43066406 C91.64020089 61.61404945 90.31898827 64.81226772 89.0625 68.125 C88.60810547 69.2284375 88.15371094 70.331875 87.68554688 71.46875 C85.77176724 76.17357467 83.99739202 80.90205956 82.43359375 85.734375 C80.94032226 90.34822124 79.01134748 94.71667074 77 99.125 C76.31208133 100.64824849 75.6245754 102.17168346 74.9375 103.6953125 C74.60878906 104.42258545 74.28007812 105.1498584 73.94140625 105.89916992 C71.86274538 110.53788277 69.88517123 115.21671705 68 119.9375 C67.690625 120.70964844 67.38125 121.48179688 67.0625 122.27734375 C66.711875 123.17582031 66.36125 124.07429688 66 125 C65.48695313 126.09296387 64.97390625 127.18592773 64.4453125 128.31201172 C62.21702538 134.30299375 62.68749128 140.42630239 62.8125 146.73046875 C62.82985576 148.72974261 62.84719477 150.72901677 62.86354065 152.72829914 C62.89617737 156.21487768 62.94871098 159.70115415 63 163.1875 C63.06124373 167.36204054 63.11888847 171.53639696 63.15307617 175.71125793 C63.17563844 178.30458853 63.21177047 180.89784453 63.26293945 183.49076843 C63.27284912 184.66581436 63.28275879 185.84086029 63.29296875 187.05151367 C63.31653442 188.59750496 63.31653442 188.59750496 63.34057617 190.17472839 C62.71874842 195.33314062 59.86700943 198.64129922 55.8515625 201.80371094 C52.16445128 204.18594261 48.10343417 205.61822374 44 207.125 C43.14277344 207.45886719 42.28554687 207.79273438 41.40234375 208.13671875 C26.43597132 213.75737408 12.49738176 214.50536601 -3.33911133 214.44604492 C-6.79504176 214.43754295 -10.24931028 214.46636511 -13.70507812 214.49804688 C-30.53134861 214.5530458 -45.04031592 212.52787401 -60.6875 206.125 C-61.51443359 205.81175781 -62.34136719 205.49851563 -63.19335938 205.17578125 C-64.40282227 204.69044922 -64.40282227 204.69044922 -65.63671875 204.1953125 C-66.33498779 203.91703613 -67.03325684 203.63875977 -67.75268555 203.35205078 C-71.22038165 201.26578234 -73.97331894 199.53076312 -76 196 C-76.72396097 191.94092537 -76.74358954 187.9657118 -76.66674995 183.84929848 C-76.6282578 181.76568018 -76.62687951 179.68480525 -76.63450623 177.60087585 C-76.64380527 173.17098338 -76.60506158 168.74215007 -76.5625 164.3125 C-76.51754661 159.19130374 -76.49296603 154.07105919 -76.50706291 148.94966698 C-76.50398554 146.91568916 -76.47044644 144.88380455 -76.43495178 142.85017395 C-76.4368224 134.33196522 -77.97458417 128.46363623 -82 121 C-82.71140948 118.99448053 -83.38988099 116.9761188 -84 114.9375 C-85.54380352 110.11233274 -87.49363785 105.74275037 -89.828125 101.25390625 C-92.16060443 96.76777082 -94 93.16504576 -94 88 C-94.66 88 -95.32 88 -96 88 C-96.226875 87.0925 -96.45375 86.185 -96.6875 85.25 C-97.97187804 80.77713102 -99.74339595 76.54284016 -101.59375 72.27734375 C-102.56223536 70.02023482 -103.47610065 67.73916368 -104.34375 65.44140625 C-106.61778813 59.14253103 -106.61778813 59.14253103 -111.2421875 54.65625 C-113.59638377 53.90632469 -113.59638377 53.90632469 -115.9453125 53.46484375 C-118.8694095 52.8033085 -120.23330576 51.35559232 -122 49 C-122.98275588 46.05173237 -123.13414725 44.07347496 -123.125 41 C-123.12757812 40.13375 -123.13015625 39.2675 -123.1328125 38.375 C-123 36 -123 36 -122 33 C-116.7814749 28.33663714 -114.16625853 26.67202433 -107.31640625 26.79296875 C-103.87650734 27.10041334 -101.80077315 27.98083796 -99 30 C-95.03658362 35.21502155 -94.19392356 39.51174537 -95 46 C-95.33 46.66 -95.66 47.32 -96 48 C-96.66 48 -97.32 48 -98 48 C-98.82058529 49.79802762 -98.82058529 49.79802762 -99 52 C-97.59851059 53.97397781 -97.59851059 53.97397781 -95.5 55.75 C-92.60934363 58.45904446 -89.89001975 61.17754868 -87.3125 64.1875 C-85.31064297 66.52453034 -83.28454157 68.74658377 -81.0625 70.875 C-79 73 -79 73 -79 75 C-78.34 75 -77.68 75 -77 75 C-75.51953125 76.46875 -75.51953125 76.46875 -73.8125 78.5 C-72.884375 79.58861328 -72.884375 79.58861328 -71.9375 80.69921875 C-71.298125 81.45847656 -70.65875 82.21773438 -70 83 C-68.77543155 84.44141911 -67.54644652 85.87910092 -66.3125 87.3125 C-65.77238281 87.94800781 -65.23226562 88.58351563 -64.67578125 89.23828125 C-62.92092244 91.08313282 -61.04943709 92.49704427 -59 94 C-59.23083786 86.36452161 -59.52090017 78.73277247 -59.84228516 71.10058594 C-59.9838077 67.59861326 -60.08028568 64.09658049 -60.16949463 60.59294128 C-60.24967046 57.76899054 -60.3633747 54.94700665 -60.48443604 52.12454224 C-60.53631054 50.75428872 -60.57444821 49.38344352 -60.59857178 48.01242065 C-60.67615293 43.88219894 -60.83074709 39.9746262 -62 36 C-64.44773102 33.68739925 -66.82683177 32.94027181 -70 32 C-72.99371222 29.60503022 -73.85213779 28.0012384 -74.41015625 24.22265625 C-74.63125832 19.63620553 -74.82800362 15.27078814 -72.125 11.375 C-67.93214611 8.18843105 -64.22282065 7.26030135 -59 7 C-53.89663276 7.86660953 -51.33346614 10.11095617 -48 14 C-45.51316345 17.55262364 -45.49514761 20.7448156 -46 25 C-47.17050847 26.91278213 -48.48527114 28.60662004 -49.88671875 30.35546875 C-51.40968322 32.60518118 -51.40023582 34.35844361 -51 37 C-50.34 37 -49.68 37 -49 37 C-41.23817866 52.17696083 -41.23817866 52.17696083 -38.625 58.875 C-36.0837616 65.24128583 -32.71311792 71.10389241 -29.30126953 77.03466797 C-28.87571777 77.77861816 -28.45016602 78.52256836 -28.01171875 79.2890625 C-27.62459717 79.95631348 -27.23747559 80.62356445 -26.83862305 81.31103516 C-26 83 -26 83 -26 85 C-23.60625147 78.36475119 -21.9383103 71.71236218 -20.5 64.8125 C-20.28569336 63.8030835 -20.07138672 62.79366699 -19.85058594 61.75366211 C-19.42522947 59.74957877 -19.00167089 57.74511284 -18.58007812 55.74023438 C-18.08071569 53.3812933 -17.56921778 51.02580933 -17.046875 48.671875 C-15.74594646 42.77943398 -14.66617245 36.99555209 -14 31 C-13.69830934 29.65915264 -13.38482319 28.3193938 -13 27 C-13.94875 26.2575 -14.8975 25.515 -15.875 24.75 C-19.14598532 22.19009845 -20.71213698 19.80899182 -21.37109375 15.66796875 C-21.54753619 9.07732473 -20.40747927 5.93217919 -16 1 C-11.28022599 -1.359887 -5.09224797 -0.72250964 0 0 Z M-10.75 9.1875 C-12.38540232 11.55883336 -12.22858693 13.18076123 -12 16 C-9.60570412 17.50751963 -8.23612509 18.00562203 -5.375 17.9375 C-2.74766998 17.20258026 -2.74766998 17.20258026 -1.6875 14.4375 C-1.460625 13.633125 -1.23375 12.82875 -1 12 C-2.74934898 9.91666921 -2.74934898 9.91666921 -5 8 C-8.80082707 7.62566572 -8.80082707 7.62566572 -10.75 9.1875 Z M-66 19 C-65.67 20.65 -65.34 22.3 -65 24 C-63.02 24.66 -61.04 25.32 -59 26 C-56.85432087 24.27144074 -56.85432087 24.27144074 -55 22 C-55.17753613 18.98188578 -55.83735215 18.16264785 -58 16 C-62.26826873 16 -62.93882432 16.37613513 -66 19 Z M42.125 17.6875 C40.71200045 19.99199569 40.71200045 19.99199569 41.5625 22.6875 C42.78479424 25.07378545 42.78479424 25.07378545 44.8125 26 C47.86098792 26 49.54056661 24.70793985 52 23 C51.72965366 20.56282742 51.72965366 20.56282742 51 18 C47.58216838 15.72144559 45.41237825 14.72885958 42.125 17.6875 Z M-113.1875 38 C-113.785625 38.66 -114.38375 39.32 -115 40 C-113.91215032 43.24983135 -113.91215032 43.24983135 -112 46 C-109.66055264 45.71269945 -107.3260857 45.38063221 -105 45 C-104.67 43.02 -104.34 41.04 -104 39 C-107.4796026 36.12032888 -109.4411922 34.57480429 -113.1875 38 Z M91.8125 38 C91.214375 38.66 90.61625 39.32 90 40 C91.08784968 43.24983135 91.08784968 43.24983135 93 46 C95.45792029 46.33343551 95.45792029 46.33343551 98 46 C100.1387261 42.79191085 100.47730962 41.72301503 100 38 C96.35416993 35.56944662 95.13103163 34.96591394 91.8125 38 Z M-67 136 C-67.83787121 139.75789481 -67.83787121 139.75789481 -67 143 C-66.40574219 142.61328125 -65.81148437 142.2265625 -65.19921875 141.828125 C-38.68917041 125.17173382 -2.26829993 124.95640854 27.49169922 131.55224609 C34.8525125 133.43451345 41.82213063 135.96226577 48.30078125 139.984375 C50.13939349 141.16606361 50.13939349 141.16606361 53 142 C53.33 140.02 53.66 138.04 54 136 C34.9924791 125.97627697 17.75468889 121.62848378 -3.70947266 121.68432617 C-6.23253996 121.68747819 -8.75442095 121.66396495 -11.27734375 121.63867188 C-29.01921544 121.56907723 -53.33678929 123.1984332 -67 136 Z M-12.75 138 C-13.8225 138.66 -14.895 139.32 -16 140 C-16 140.66 -16 141.32 -16 142 C-17.65 142.66 -19.3 143.32 -21 144 C-19.34348188 145.34592097 -17.67344761 146.67518731 -16 148 C-15.360625 148.55171875 -14.72125 149.1034375 -14.0625 149.671875 C-13.0415625 150.51492187 -13.0415625 150.51492187 -12 151.375 C-11.360625 151.91898438 -10.72125 152.46296875 -10.0625 153.0234375 C-7.99318515 154.27079532 -7.99318515 154.27079532 -5.58203125 153.390625 C-2.79257833 151.88828727 -0.2586413 150.22622174 2.3125 148.375 C3.19550781 147.74335938 4.07851562 147.11171875 4.98828125 146.4609375 C5.65214844 145.97882813 6.31601563 145.49671875 7 145 C3.32461669 140.99049093 -0.09826243 138.40630753 -5 136 C-8.8664136 136 -9.69019314 136.11704193 -12.75 138 Z M-68 152 C-67.67 156.29 -67.34 160.58 -67 165 C-66.34 165 -65.68 165 -65 165 C-65 164.01 -65 163.02 -65 162 C-64.34 162 -63.68 162 -63 162 C-62.01 160.02 -61.02 158.04 -60 156 C-63.66980204 153.08828211 -63.66980204 153.08828211 -68 152 Z M46 156 C46.45375 156.7425 46.9075 157.485 47.375 158.25 C48.68640796 160.46930578 49.88280803 162.67967822 51 165 C51.66 165 52.32 165 53 165 C53.33 160.71 53.66 156.42 54 152 C50.71841516 152 48.62118892 154.17656423 46 156 Z M-67 177 C-67.78227241 179.57923822 -67.78227241 179.57923822 -68 182 C-64.36340437 181.26214002 -61.24990437 179.76909849 -57.875 178.25 C-31.47645274 167.33953128 -1.63909726 167.79292913 26 173 C26.85271484 173.15251221 27.70542969 173.30502441 28.58398438 173.4621582 C33.39014319 174.35859489 37.74914441 175.46376415 42.25 177.4375 C43.2503125 177.87320313 44.250625 178.30890625 45.28125 178.7578125 C48.22932925 180.10477974 51.13373222 181.48724756 54 183 C53.12640862 178.135982 53.12640862 178.135982 50.0625 174.5625 C47.87392291 173.8684413 47.87392291 173.8684413 45 174 C45 173.34 45 172.68 45 172 C44.04738281 171.73445312 43.09476562 171.46890625 42.11328125 171.1953125 C40.85902344 170.84210938 39.60476562 170.48890625 38.3125 170.125 C37.07113281 169.77695313 35.82976562 169.42890625 34.55078125 169.0703125 C31 168 31 168 28.37890625 166.93359375 C4.36440339 157.50918294 -46.97535034 159.11197549 -67 177 Z M-68 166 C-67 168 -67 168 -67 168 Z M53 166 C54 168 54 168 54 168 Z " fill="#FFFFFF" transform="translate(138,1)"/>
</svg>
