<?xml version="1.0" encoding="UTF-8"?>
<svg version="1.1" xmlns="http://www.w3.org/2000/svg" width="1220" height="282">
<path d="M0 0 C11.88 0 23.76 0 36 0 C36.0093457 2.49111328 36.01869141 4.98222656 36.02832031 7.54882812 C36.06229787 15.83899075 36.11796004 24.12890987 36.18390274 32.41887665 C36.22317938 37.43828008 36.25546401 42.45751326 36.27099609 47.47705078 C36.28629449 52.33375808 36.32096894 57.18999669 36.36830902 62.04649353 C36.38298831 63.88650913 36.39103315 65.72659169 36.39188385 67.56666565 C36.40577177 82.56312578 37.10606562 99.78423324 47 112 C55.07923685 118.35247328 62.92176645 119.94264093 73.03417969 119.26074219 C79.21147135 118.44139948 84.50867512 115.41583019 88.93359375 111.125 C98.14961773 98.99018538 97.6030362 82.49384252 97.609375 68.06640625 C97.62439026 66.09242927 97.6411243 64.11846469 97.65948486 62.14451599 C97.70279529 57.00067502 97.72307608 51.85700338 97.73822021 46.7130127 C97.76140027 40.51348809 97.81378695 34.31414686 97.86116028 28.11476898 C97.92956396 18.74313204 97.96134453 9.37201909 98 0 C110.54 0 123.08 0 136 0 C136.08021762 18.87342306 136.08021762 18.87342306 136.09765625 27.05664062 C136.10950962 32.59224386 136.12337091 38.12777959 136.15087891 43.66333008 C136.4962766 115.10838958 136.4962766 115.10838958 115 137 C114.34 137 113.68 137 113 137 C113 137.66 113 138.32 113 139 C109.51053356 141.60427091 105.7401343 143.7758668 102 146 C101.32195312 146.40992188 100.64390625 146.81984375 99.9453125 147.2421875 C90.11127363 152.68678413 78.70768238 153.53934717 67.6875 153.4375 C66.50978027 153.42847656 65.33206055 153.41945312 64.11865234 153.41015625 C46.66299917 153.06464229 32.39930279 148.83327839 20 136 C19.42636719 135.50757813 18.85273438 135.01515625 18.26171875 134.5078125 C7.52964566 125.08063167 1.22314078 108.40605139 -0.27881622 94.39997864 C-0.68504932 87.6436543 -0.57587513 80.88551428 -0.48828125 74.12109375 C-0.47893086 71.97063529 -0.47182531 69.82016601 -0.46684265 67.66969299 C-0.447948 62.06854727 -0.39900254 56.46807216 -0.34332275 50.8671875 C-0.29174754 45.12834743 -0.26924766 39.38939672 -0.24414062 33.65039062 C-0.19086319 22.43325494 -0.10307508 11.2167887 0 0 Z " fill="#FFFFFF" transform="translate(12,48)"/>
<path d="M0 0 C1.1348584 0.00829834 2.2697168 0.01659668 3.43896484 0.02514648 C19.30842216 0.3416346 32.10108334 4.72135901 46.3125 11.4375 C48.14349753 12.2552502 49.97637582 13.06882673 51.8125 13.875 C52.9675 14.390625 54.1225 14.90625 55.3125 15.4375 C54.80297484 20.89791126 52.79647614 24.63383928 50.0625 29.25 C49.24595616 30.6626809 48.42954912 32.07544088 47.61328125 33.48828125 C47.21834473 34.16455566 46.8234082 34.84083008 46.41650391 35.53759766 C44.99389673 37.98579072 43.6177036 40.45829087 42.25 42.9375 C41.86714844 43.6284375 41.48429688 44.319375 41.08984375 45.03125 C40.83332031 45.4953125 40.57679688 45.959375 40.3125 46.4375 C37.37901114 45.80436112 34.95300125 44.85719347 32.29296875 43.4765625 C18.58693966 36.54441384 5.01640882 30.98176519 -10.6875 34.4375 C-14.14597965 36.16181321 -15.51485515 37.17853272 -17.6875 40.4375 C-18.09720745 46.08453439 -18.09720745 46.08453439 -16.6875 51.4375 C-11.4385745 53.77974391 -5.88537034 55.43432564 -0.4375 57.25 C0.63209961 57.60819824 1.70169922 57.96639648 2.80371094 58.33544922 C9.02028534 60.40049948 15.25214315 62.30888968 21.5625 64.0625 C34.36124837 67.69871475 47.26242712 73.82879395 55.02734375 85.09765625 C61.38242675 96.66815691 62.18915231 109.79136022 58.625 122.375 C54.26143715 134.84014282 46.91801499 142.51762571 35.4453125 148.9296875 C13.11431101 159.67752612 -16.34724471 155.88158232 -39.0625 148.125 C-47.93659503 144.95357449 -56.19283842 141.2288294 -63.6875 135.4375 C-61.51214612 129.78523159 -58.79166363 124.42324549 -56.09228516 119.00683594 C-55.18467682 117.18182316 -54.28568335 115.35272024 -53.38671875 113.5234375 C-52.81566406 112.37617188 -52.24460937 111.22890625 -51.65625 110.046875 C-50.87411133 108.4685791 -50.87411133 108.4685791 -50.07617188 106.85839844 C-48.6875 104.4375 -48.6875 104.4375 -46.6875 103.4375 C-44.70531136 104.57103601 -42.77632822 105.79801327 -40.875 107.0625 C-26.81485059 116.03257866 -7.58381619 122.65228739 9.3125 120.4375 C12.74223239 119.61882094 15.57088325 118.69685645 18.3125 116.4375 C19.57224601 112.79086681 19.60059226 110.64824068 18.71484375 106.92578125 C16.77820737 103.48946544 14.1998472 102.48640114 10.6875 101.0625 C9.99454834 100.76851318 9.30159668 100.47452637 8.58764648 100.17163086 C2.32185301 97.62231625 -4.1146535 95.80900061 -10.625 94 C-27.87021341 89.17328824 -42.67281631 83.29451521 -53.6875 68.4375 C-59.00880902 58.05300516 -58.12655831 42.29768412 -54.6875 31.4375 C-50.36574046 20.51937064 -40.88739217 10.69212428 -30.375 5.625 C-20.3465553 1.58110935 -10.79376004 -0.10292893 0 0 Z " fill="#FFB400" transform="translate(678.6875,46.5625)"/>
<path d="M0 0 C12.21 0 24.42 0 37 0 C37.33 28.38 37.66 56.76 38 86 C43.57551837 79.30937796 49.12939441 72.61816682 54.6328125 65.87109375 C57.78330914 62.04994683 60.98336414 58.27196557 64.19506836 54.50219727 C66.17584241 52.17382932 68.0210944 49.9652561 69.61108398 47.34643555 C72.4766109 44.53186435 74.30866994 44.43156175 78.24688721 44.43351746 C79.46272491 44.4722271 79.46272491 44.4722271 80.703125 44.51171875 C81.54091492 44.51879349 82.37870483 44.52586823 83.24188232 44.53315735 C85.91217147 44.56109934 88.58034708 44.62383387 91.25 44.6875 C93.06246967 44.71258329 94.87497228 44.73539641 96.6875 44.75585938 C101.12581171 44.81092496 105.56254781 44.89719333 110 45 C108.09685015 49.08006684 105.39165575 52.20610735 102.4375 55.5625 C101.34276361 56.82206003 100.24902202 58.08248534 99.15625 59.34375 C98.61742187 59.96507812 98.07859375 60.58640625 97.5234375 61.2265625 C95.4521603 63.63774159 93.44078991 66.09467909 91.4375 68.5625 C87.22089824 73.75452694 82.90888196 78.86036669 78.578125 83.95703125 C76.03552286 86.95807226 73.51402628 89.97502953 71 93 C75.17170914 99.32163432 79.4547358 105.55545235 83.8125 111.75 C85.05492672 113.5206655 86.29711447 115.29149871 87.5390625 117.0625 C88.13493164 117.91199219 88.73080078 118.76148438 89.34472656 119.63671875 C93.89583798 126.13447074 98.39948145 132.66504199 102.88671875 139.20703125 C103.63078979 140.29129395 103.63078979 140.29129395 104.38989258 141.39746094 C105.35544093 142.80506949 106.32016752 144.2132422 107.28393555 145.62207031 C109.08091 148.24267177 110.86854735 150.83102974 112.8203125 153.33984375 C114 155 114 155 114 157 C108.69830036 157.19836551 103.39877635 157.34319949 98.09423828 157.43945312 C96.2917721 157.47958705 94.48956483 157.5341109 92.68798828 157.60351562 C77.73926131 158.16481515 77.73926131 158.16481515 73.57324219 155.37475586 C72.00624366 153.30652308 70.99269747 151.38990946 70 149 C69.3709375 148.05253906 68.741875 147.10507813 68.09375 146.12890625 C67.5678125 145.28199219 67.041875 144.43507812 66.5 143.5625 C62.68046808 137.48293937 58.76095575 131.49069341 54.625 125.62109375 C54.21233887 125.03312012 53.79967773 124.44514648 53.37451172 123.83935547 C52.55223015 122.6700383 51.72583293 121.50360272 50.89501953 120.34033203 C48 116.22216986 48 116.22216986 48 114 C46.70450101 115.09966775 45.41373929 116.20491801 44.125 117.3125 C43.40570312 117.92738281 42.68640625 118.54226562 41.9453125 119.17578125 C39.0966249 121.84714091 38.05256989 123.44439347 37.68115234 127.36987305 C37.63979882 128.75023374 37.60843618 130.13092204 37.5859375 131.51171875 C37.56829346 132.15741821 37.55064941 132.80311768 37.5324707 133.46838379 C37.46952683 135.87450511 37.423255 138.28103928 37.375 140.6875 C37.189375 148.7621875 37.189375 148.7621875 37 157 C24.79 157 12.58 157 0 157 C0 105.19 0 53.38 0 0 Z " fill="#FFB400" transform="translate(766,43)"/>
<path d="M0 0 C12.54 0 25.08 0 38 0 C38.86625 2.619375 39.7325 5.23875 40.625 7.9375 C45.03623352 21.21726795 49.58125923 34.45176078 54.11181641 47.69116211 C54.41082855 48.56524216 54.7098407 49.4393222 55.01791382 50.33988953 C55.5797569 51.98202855 56.14192584 53.62405614 56.70449829 55.26594543 C58.49620875 60.50190363 60.25734001 65.7475166 62 71 C65.30422646 60.91257787 68.20587952 50.73964134 71 40.5 C73.47601447 31.43072263 76.00918157 22.4047402 78.89453125 13.45703125 C80.32294747 8.99007594 81.65240083 4.49199723 83 0 C94.55 0 106.1 0 118 0 C117.01 2.97 116.02 5.94 115 9 C114.27281362 11.31116456 113.55360299 13.62485917 112.84375 15.94140625 C112.46089844 17.18470703 112.07804688 18.42800781 111.68359375 19.70898438 C111.090304 21.63926165 110.49777646 23.56976448 109.90673828 25.50073242 C106.10638846 37.90609271 106.10638846 37.90609271 103.83203125 43.76831055 C101.91340611 48.91448202 100.23466586 54.15054685 98.50256348 59.36193848 C97.73153178 61.68053648 96.95715653 63.99800132 96.18261719 66.31542969 C93.10789365 75.53614942 90.10394108 84.77695564 87.15625 94.0390625 C86.17490063 97.10575646 85.19261329 100.17214856 84.21008301 103.23846436 C83.5785578 105.21939794 82.9517131 107.20183084 82.32995605 109.18585205 C71.47043114 143.83028116 71.47043114 143.83028116 60 152 C58.97261719 152.7425 57.94523438 153.485 56.88671875 154.25 C45.24845692 161.68798688 30.41525642 162.2462373 17 160 C14.16601562 158.90625 14.16601562 158.90625 12 157 C11.43237305 153.8137207 11.43237305 153.8137207 11.51171875 149.92578125 C11.52233086 148.90003242 11.52233086 148.90003242 11.53315735 147.8535614 C11.56111996 145.67208841 11.62384936 143.49319506 11.6875 141.3125 C11.71258103 139.8327194 11.73539456 138.35289851 11.75585938 136.87304688 C11.81094865 133.24786137 11.89722892 129.62418247 12 126 C12.73677979 126.14147461 13.47355957 126.28294922 14.23266602 126.42871094 C15.20905029 126.61208008 16.18543457 126.79544922 17.19140625 126.984375 C18.63688843 127.25846191 18.63688843 127.25846191 20.11157227 127.53808594 C25.65728109 128.42494935 31.09828879 129.14238333 36 126 C39.65851516 121.15682279 41.53292224 115.02473112 41 109 C38.86123505 101.13273687 35.4895878 93.66356191 32.30859375 86.171875 C30.55764865 81.92779315 28.96197395 77.63004543 27.36474609 73.32666016 C25.52025948 68.36502604 23.61871744 63.4284669 21.6875 58.5 C18.84261018 51.23542791 16.09847287 43.93587886 13.375 36.625 C10.73335372 29.53772367 8.03081972 22.5077806 5.0625 15.55078125 C0 3.39705882 0 3.39705882 0 0 Z " fill="#FFFFFF" transform="translate(481,88)"/>
<path d="M0 0 C8.10662568 5.99713589 11.74933718 13.47306559 13.39183044 23.2412262 C13.89647412 27.36013136 14.00053753 31.39414547 13.98071289 35.53491211 C13.98085892 36.34548065 13.98100494 37.15604919 13.9811554 37.99118042 C13.98046344 40.64779414 13.97270489 43.30433615 13.96484375 45.9609375 C13.96297702 47.81181296 13.96155432 49.66268893 13.96055603 51.51356506 C13.95675094 56.36818828 13.94693792 61.22278125 13.93585205 66.07739258 C13.92378892 71.91116969 13.91922612 77.74495695 13.91339874 83.57874298 C13.903725 92.42621423 13.88455441 101.27361919 13.8671875 110.12109375 C1.9871875 110.12109375 -9.8928125 110.12109375 -22.1328125 110.12109375 C-22.14699219 105.01640625 -22.16117188 99.91171875 -22.17578125 94.65234375 C-22.19585176 91.40748375 -22.21738161 88.16276368 -22.24414062 84.91796875 C-22.28642326 79.77403329 -22.32346437 74.63045274 -22.32836914 69.48632812 C-22.33266548 65.33627579 -22.36123754 61.18701962 -22.40624428 57.03721619 C-22.41917687 55.45853828 -22.42354203 53.87976489 -22.41896629 52.30104065 C-22.24277171 41.26814091 -22.24277171 41.26814091 -26.78926086 31.44250488 C-29.10822224 29.16175787 -30.93290052 28.56029736 -34.1328125 28.12109375 C-40.9436354 28.34079771 -46.86350575 30.01091255 -51.8984375 34.80078125 C-56.4600212 39.96024242 -58.37129756 43.61545554 -58.45166016 50.63378906 C-58.46672859 51.60026871 -58.46672859 51.60026871 -58.48210144 52.58627319 C-58.51289073 54.70724631 -58.52995628 56.82809345 -58.546875 58.94921875 C-58.56559012 60.42324911 -58.5851638 61.8972688 -58.6055603 63.37127686 C-58.65685135 67.24440209 -58.69649312 71.11756204 -58.73370361 74.99084473 C-58.78080967 79.64158367 -58.84239449 84.29215074 -58.90155029 88.94274902 C-58.98972573 96.00212777 -59.0595159 103.06147419 -59.1328125 110.12109375 C-71.3428125 110.12109375 -83.5528125 110.12109375 -96.1328125 110.12109375 C-96.1328125 73.16109375 -96.1328125 36.20109375 -96.1328125 -1.87890625 C-84.9128125 -1.87890625 -73.6928125 -1.87890625 -62.1328125 -1.87890625 C-61.6378125 4.55609375 -61.6378125 4.55609375 -61.1328125 11.12109375 C-59.245625 9.29578125 -59.245625 9.29578125 -57.3203125 7.43359375 C-52.33458141 3.0105157 -47.32697022 0.47060185 -41.1328125 -1.87890625 C-40.400625 -2.19859375 -39.6684375 -2.51828125 -38.9140625 -2.84765625 C-26.4479527 -7.58828955 -11.43149874 -6.68406456 0 0 Z " fill="#FFB400" transform="translate(1066.1328125,89.87890625)"/>
<path d="M0 0 C0.65097656 0.37382813 1.30195313 0.74765625 1.97265625 1.1328125 C10.5072667 6.60511049 12.97295699 13.82539812 15.16418457 23.36425781 C16.77796763 31.4057937 16.48989257 39.55545245 16.390625 47.71875 C16.38314207 49.55675635 16.37745888 51.39477082 16.37347412 53.23278809 C16.35837895 58.01351909 16.31924132 62.79374502 16.2746582 67.57427979 C16.22605922 73.34059719 16.20809452 79.10708579 16.18484497 84.87355042 C16.14637634 93.5827156 16.0696119 102.29077794 16 111 C4.12 111 -7.76 111 -20 111 C-20.03738281 106.12347656 -20.07476562 101.24695313 -20.11328125 96.22265625 C-20.14358473 93.1191064 -20.17474802 90.01561226 -20.20898438 86.91210938 C-20.26315289 81.99441456 -20.31426837 77.07682992 -20.34643555 72.15893555 C-20.37259222 68.19057285 -20.41308013 64.22258365 -20.46318626 60.25445366 C-20.47977191 58.74637971 -20.49133759 57.23824128 -20.49761391 55.73008919 C-20.22510933 42.56531446 -20.22510933 42.56531446 -25.6875 31 C-31.74435961 28.38081746 -36.78426713 28.62286299 -42.828125 30.92578125 C-48.88856042 33.92329877 -53.67948682 38.56300134 -56 45 C-56.61765905 50.0356427 -56.6064207 55.0565259 -56.609375 60.12109375 C-56.62437181 61.5908438 -56.6411021 63.06057709 -56.65948486 64.5302887 C-56.70300301 68.37878229 -56.72312258 72.22704861 -56.73822021 76.07574463 C-56.76130505 80.70407494 -56.81371664 85.3321566 -56.86116028 89.960289 C-56.92979727 96.97359058 -56.96138827 103.98617958 -57 111 C-69.21 111 -81.42 111 -94 111 C-94 74.04 -94 37.08 -94 -1 C-83.11 -1 -72.22 -1 -61 -1 C-60.505 5.93 -60.505 5.93 -60 13 C-58.948125 11.80375 -57.89625 10.6075 -56.8125 9.375 C-51.62521343 4.18771343 -45.75831427 1.64563278 -39 -1 C-38.21109375 -1.34160156 -37.4221875 -1.68320313 -36.609375 -2.03515625 C-25.62787196 -6.16281911 -10.1500383 -6.05440881 0 0 Z " fill="#FFFFFF" transform="translate(274,89)"/>
<path d="M0 0 C0.95422852 0.00427002 1.90845703 0.00854004 2.89160156 0.01293945 C18.267596 0.3776232 33.09268997 5.9534928 44.375 16.5 C42.86722254 22.18595597 39.97596115 26.54424599 36.75 31.375 C36.234375 32.15875 35.71875 32.9425 35.1875 33.75 C33.92263162 35.67072607 32.65172497 37.58714347 31.375 39.5 C26.83011249 37.79789507 22.56807177 35.63586259 18.25 33.4375 C16.83168585 32.71556532 15.4124495 31.99543884 13.9921875 31.27734375 C13.36940918 30.96015381 12.74663086 30.64296387 12.10498047 30.31616211 C7.8716441 28.31897844 3.95468594 28.31657445 -0.625 28.3125 C-1.71167969 28.29413086 -1.71167969 28.29413086 -2.8203125 28.27539062 C-6.63200298 28.26484167 -8.3786304 28.3357536 -11.625 30.5 C-11.98797936 32.47747122 -11.98797936 32.47747122 -11.8125 34.625 C-11.750625 35.90375 -11.68875 37.1825 -11.625 38.5 C-4.38381725 42.45652253 2.85268322 45.04911902 10.75 47.375 C23.23560874 51.21398689 35.65861365 55.29067824 42.625 67.1875 C46.86458512 75.21242897 46.85071628 85.34062552 44.3515625 94.078125 C39.52197403 104.4844206 31.09487461 111.57140959 20.375 115.5 C0.14800228 121.50032845 -23.15898652 118.19577362 -41.57421875 108.3828125 C-45.69152569 105.84178568 -49.24460882 102.95387794 -52.625 99.5 C-52.03013614 95.52946289 -50.78486135 92.61033727 -48.8125 89.125 C-48.27753906 88.17238281 -47.74257812 87.21976562 -47.19140625 86.23828125 C-46.67449219 85.33464844 -46.15757813 84.43101562 -45.625 83.5 C-44.98884766 82.37658203 -44.98884766 82.37658203 -44.33984375 81.23046875 C-43.44165526 79.64978577 -42.53452906 78.07418491 -41.625 76.5 C-37.51768197 77.05543802 -35.09818049 78.35099217 -31.75 80.75 C-19.68416105 88.59441272 -6.88599054 91.51196364 7.3046875 88.9765625 C7.98789063 88.81929688 8.67109375 88.66203125 9.375 88.5 C9.4575 87.241875 9.54 85.98375 9.625 84.6875 C9.67140625 83.97980469 9.7178125 83.27210938 9.765625 82.54296875 C9.54065535 80.40291635 9.54065535 80.40291635 7.921875 78.90234375 C4.24788342 76.8793944 0.41009874 75.95944244 -3.625 74.875 C-11.10133873 72.7390015 -18.26202763 70.20728134 -25.375 67.0625 C-26.18324219 66.71558105 -26.99148438 66.36866211 -27.82421875 66.01123047 C-36.17582336 62.20541397 -42.78726143 56.94302484 -46.625 48.5 C-49.09449309 38.82781872 -47.83021801 29.03789099 -43 20.375 C-33.73792103 5.97972063 -16.59213468 -0.1140302 0 0 Z " fill="#FFB400" transform="translate(1158.625,84.5)"/>
<path d="M0 0 C11.88 0 23.76 0 36 0 C36 11.88 36 23.76 36 36 C43.59 36 51.18 36 59 36 C59 44.91 59 53.82 59 63 C51.41 63 43.82 63 36 63 C36.11984709 69.90523255 36.24247701 76.81029684 36.37231445 83.71533203 C36.41563886 86.0645859 36.45731573 88.41387075 36.49731445 90.76318359 C36.55507715 94.1390924 36.61875468 97.51484561 36.68359375 100.890625 C36.70866249 102.46738007 36.70866249 102.46738007 36.73423767 104.07598877 C36.7641555 105.54706085 36.7641555 105.54706085 36.79467773 107.04785156 C36.81799416 108.3402475 36.81799416 108.3402475 36.84178162 109.65875244 C36.99267792 111.89165105 37.38162272 113.85420545 38 116 C45.99942726 117.7020058 52.38341401 115.58985779 60 113 C60.9925859 116.14175409 61.966512 119.2890103 62.9375 122.4375 C63.21529297 123.31599609 63.49308594 124.19449219 63.77929688 125.09960938 C65.5152364 130.76755648 66.52495147 136.0889531 67 142 C52.5273959 150.44235239 34.84439061 152.16462386 18.5 149.41015625 C11.55107227 147.31582664 6.96021097 143.00569729 3 137 C0.59124035 132.09348764 -0.37206119 128.60679007 -0.34057617 123.05493164 C-0.34101425 122.40042023 -0.34145233 121.74590881 -0.34190369 121.07156372 C-0.33983374 118.93411147 -0.31659013 116.79746939 -0.29296875 114.66015625 C-0.28736636 113.16800871 -0.2830993 111.67585561 -0.28010559 110.18370056 C-0.26870733 106.27587372 -0.23928423 102.36838683 -0.20599365 98.46069336 C-0.17518381 94.4653788 -0.16157704 90.47000876 -0.14648438 86.47460938 C-0.11440891 78.64956741 -0.06168293 70.82487485 0 63 C-4.62 63 -9.24 63 -14 63 C-14 54.09 -14 45.18 -14 36 C-9.38 36 -4.76 36 0 36 C0 24.12 0 12.24 0 0 Z " fill="#FFFFFF" transform="translate(402,52)"/>
<path d="M0 0 C0.75728394 0.00202423 1.51456787 0.00404846 2.2947998 0.00613403 C3.06787476 0.00517731 3.84094971 0.00422058 4.63745117 0.00323486 C6.27502524 0.00255313 7.91260199 0.00440697 9.5501709 0.00857544 C12.06536901 0.01392382 14.58038854 0.00863027 17.09558105 0.00222778 C18.68282103 0.00288857 20.2700609 0.00416973 21.8572998 0.00613403 C22.99322571 0.00309769 22.99322571 0.00309769 24.15209961 0 C29.46109849 0.02399522 29.46109849 0.02399522 30.5760498 1.13894653 C30.67170103 2.60643613 30.6979329 4.07851537 30.69630432 5.54911804 C30.69767899 6.50129211 30.69905365 7.45346619 30.70046997 8.43449402 C30.69507706 10.01405128 30.69507706 10.01405128 30.6895752 11.6255188 C30.68972122 12.7278183 30.68986725 13.8301178 30.6900177 14.96582031 C30.68931802 18.62901745 30.68152305 22.29216447 30.67370605 25.95535278 C30.67184207 28.48741122 30.67041808 31.01947001 30.66941833 33.55152893 C30.66598326 39.54742903 30.65809249 45.54330743 30.64806885 51.53919882 C30.63690658 58.36375711 30.63139697 65.18831625 30.62637341 72.0128814 C30.61590984 86.05491502 30.59756482 100.09692572 30.5760498 114.13894653 C18.3660498 114.13894653 6.1560498 114.13894653 -6.4239502 114.13894653 C-6.44649802 99.42284769 -6.46492984 84.70675953 -6.47576237 69.99064732 C-6.48092512 63.15815679 -6.48796743 56.32567774 -6.49938965 49.49319458 C-6.51039726 42.90559349 -6.51622643 36.31800122 -6.51882744 29.73039055 C-6.5206822 27.21086374 -6.52430377 24.69133762 -6.52968025 22.17181587 C-6.53688695 18.65636888 -6.53794129 15.14097193 -6.53747559 11.6255188 C-6.54107086 10.57248062 -6.54466614 9.51944244 -6.54837036 8.43449402 C-6.54630836 7.00623291 -6.54630836 7.00623291 -6.54420471 5.54911804 C-6.5451265 4.71673898 -6.5460483 3.88435991 -6.54699802 3.02675724 C-6.28304987 -1.02275879 -3.38579845 0.01530288 0 0 Z " fill="#FFB400" transform="translate(905.4239501953125,85.86105346679688)"/>
<path d="M0 0 C0.75728394 0.00202423 1.51456787 0.00404846 2.2947998 0.00613403 C3.06787476 0.00517731 3.84094971 0.00422058 4.63745117 0.00323486 C6.27502524 0.00255313 7.91260199 0.00440697 9.5501709 0.00857544 C12.06536901 0.01392382 14.58038854 0.00863027 17.09558105 0.00222778 C18.68282103 0.00288857 20.2700609 0.00416973 21.8572998 0.00613403 C22.99322571 0.00309769 22.99322571 0.00309769 24.15209961 0 C29.46109849 0.02399522 29.46109849 0.02399522 30.5760498 1.13894653 C30.67170103 2.60643613 30.6979329 4.07851537 30.69630432 5.54911804 C30.69767899 6.50129211 30.69905365 7.45346619 30.70046997 8.43449402 C30.69507706 10.01405128 30.69507706 10.01405128 30.6895752 11.6255188 C30.68972122 12.7278183 30.68986725 13.8301178 30.6900177 14.96582031 C30.68931802 18.62901745 30.68152305 22.29216447 30.67370605 25.95535278 C30.67184207 28.48741122 30.67041808 31.01947001 30.66941833 33.55152893 C30.66598326 39.54742903 30.65809249 45.54330743 30.64806885 51.53919882 C30.63690658 58.36375711 30.63139697 65.18831625 30.62637341 72.0128814 C30.61590984 86.05491502 30.59756482 100.09692572 30.5760498 114.13894653 C18.3660498 114.13894653 6.1560498 114.13894653 -6.4239502 114.13894653 C-6.44649802 99.42284769 -6.46492984 84.70675953 -6.47576237 69.99064732 C-6.48092512 63.15815679 -6.48796743 56.32567774 -6.49938965 49.49319458 C-6.51039726 42.90559349 -6.51622643 36.31800122 -6.51882744 29.73039055 C-6.5206822 27.21086374 -6.52430377 24.69133762 -6.52968025 22.17181587 C-6.53688695 18.65636888 -6.53794129 15.14097193 -6.53747559 11.6255188 C-6.54107086 10.57248062 -6.54466614 9.51944244 -6.54837036 8.43449402 C-6.54630836 7.00623291 -6.54630836 7.00623291 -6.54420471 5.54911804 C-6.5451265 4.71673898 -6.5460483 3.88435991 -6.54699802 3.02675724 C-6.28304987 -1.02275879 -3.38579845 0.01530288 0 0 Z " fill="#FFFFFF" transform="translate(329.4239501953125,85.86105346679688)"/>
<path d="M0 0 C12.21 0 24.42 0 37 0 C37 10.56 37 21.12 37 32 C24.79 32 12.58 32 0 32 C0 21.44 0 10.88 0 0 Z " fill="#FFB400" transform="translate(899,43)"/>
<path d="M0 0 C12.21 0 24.42 0 37 0 C37 10.56 37 21.12 37 32 C31.89130189 32.02290896 26.78278074 32.04283601 21.67407227 32.05493164 C19.93480832 32.05997204 18.19554864 32.0668043 16.45629883 32.07543945 C13.96174063 32.08751792 11.46723827 32.09323108 8.97265625 32.09765625 C8.19036148 32.10281754 7.40806671 32.10797882 6.60206604 32.11329651 C4.73432886 32.11349226 2.86670796 32.06199694 1 32 C0 31 0 31 -0.11352539 28.04077148 C-0.10828857 26.74727783 -0.10305176 25.45378418 -0.09765625 24.12109375 C-0.09515869 22.86482178 -0.09266113 21.6085498 -0.09008789 20.31420898 C-0.08098389 18.70489502 -0.07187988 17.09558105 -0.0625 15.4375 C-0.041875 10.343125 -0.02125 5.24875 0 0 Z " fill="#FFFFFF" transform="translate(323,43)"/>
</svg>
