<svg width="540" height="600" viewBox="0 0 540 600" fill="none" xmlns="http://www.w3.org/2000/svg">
<mask id="mask0_3644_46397" style="mask-type:alpha" maskUnits="userSpaceOnUse" x="-130" y="0" width="800" height="600">
<rect width="800" height="600" transform="matrix(-1 0 0 1 670 0)" fill="url(#paint0_radial_3644_46397)"/>
</mask>
<g mask="url(#mask0_3644_46397)">
<rect width="72" height="70" transform="matrix(-1 0 0 1 558 265)" stroke="#1C1D26" stroke-width="2"/>
<rect width="72" height="70" transform="matrix(-1 0 0 1 486 265)" stroke="#1C1D26" stroke-width="2"/>
<rect width="72" height="70" transform="matrix(-1 0 0 1 414 265)" stroke="#1C1D26" stroke-width="2"/>
<rect width="72" height="70" transform="matrix(-1 0 0 1 342 265)" stroke="#1C1D26" stroke-width="2"/>
<rect width="72" height="70" transform="matrix(-1 0 0 1 270 265)" stroke="#1C1D26" stroke-width="2"/>
<rect width="72" height="70" transform="matrix(-1 0 0 1 198 265)" stroke="#1C1D26" stroke-width="2"/>
<rect width="72" height="70" transform="matrix(-1 0 0 1 126 265)" stroke="#1C1D26" stroke-width="2"/>
<rect width="72" height="70" transform="matrix(-1 0 0 1 54 265)" stroke="#1C1D26" stroke-width="2"/>
<rect width="72" height="70" transform="matrix(-1 0 0 1 558 195)" stroke="#1C1D26" stroke-width="2"/>
<rect width="72" height="70" transform="matrix(-1 0 0 1 486 195)" stroke="#1C1D26" stroke-width="2"/>
<rect width="72" height="70" transform="matrix(-1 0 0 1 414 195)" stroke="#1C1D26" stroke-width="2"/>
<rect width="72" height="70" transform="matrix(-1 0 0 1 342 195)" stroke="#1C1D26" stroke-width="2"/>
<rect width="72" height="70" transform="matrix(-1 0 0 1 270 195)" stroke="#1C1D26" stroke-width="2"/>
<rect width="72" height="70" transform="matrix(-1 0 0 1 198 195)" stroke="#1C1D26" stroke-width="2"/>
<rect width="72" height="70" transform="matrix(-1 0 0 1 126 195)" stroke="#1C1D26" stroke-width="2"/>
<rect width="72" height="70" transform="matrix(-1 0 0 1 54 195)" stroke="#1C1D26" stroke-width="2"/>
<rect width="72" height="70" transform="matrix(-1 0 0 1 558 335)" stroke="#1C1D26" stroke-width="2"/>
<rect width="72" height="70" transform="matrix(-1 0 0 1 486 335)" stroke="#1C1D26" stroke-width="2"/>
<rect width="72" height="70" transform="matrix(-1 0 0 1 414 335)" stroke="#1C1D26" stroke-width="2"/>
<rect width="72" height="70" transform="matrix(-1 0 0 1 342 335)" stroke="#1C1D26" stroke-width="2"/>
<rect width="72" height="70" transform="matrix(-1 0 0 1 270 335)" stroke="#1C1D26" stroke-width="2"/>
<rect width="72" height="70" transform="matrix(-1 0 0 1 198 335)" stroke="#1C1D26" stroke-width="2"/>
<rect width="72" height="70" transform="matrix(-1 0 0 1 126 335)" stroke="#1C1D26" stroke-width="2"/>
<rect width="72" height="70" transform="matrix(-1 0 0 1 54 335)" stroke="#1C1D26" stroke-width="2"/>
<rect width="72" height="70" transform="matrix(-1 0 0 1 558 405)" stroke="#1C1D26" stroke-width="2"/>
<rect width="72" height="70" transform="matrix(-1 0 0 1 486 405)" stroke="#1C1D26" stroke-width="2"/>
<rect width="72" height="70" transform="matrix(-1 0 0 1 414 405)" stroke="#1C1D26" stroke-width="2"/>
<rect width="72" height="70" transform="matrix(-1 0 0 1 342 405)" stroke="#1C1D26" stroke-width="2"/>
<rect width="72" height="70" transform="matrix(-1 0 0 1 270 405)" stroke="#1C1D26" stroke-width="2"/>
<rect width="72" height="70" transform="matrix(-1 0 0 1 198 405)" stroke="#1C1D26" stroke-width="2"/>
<rect width="72" height="70" transform="matrix(-1 0 0 1 126 405)" stroke="#1C1D26" stroke-width="2"/>
<rect width="72" height="70" transform="matrix(-1 0 0 1 54 405)" stroke="#1C1D26" stroke-width="2"/>
<rect width="72" height="70" transform="matrix(-1 0 0 1 558 475)" stroke="#1C1D26" stroke-width="2"/>
<rect width="72" height="70" transform="matrix(-1 0 0 1 486 475)" stroke="#1C1D26" stroke-width="2"/>
<rect width="72" height="70" transform="matrix(-1 0 0 1 414 475)" stroke="#1C1D26" stroke-width="2"/>
<rect width="72" height="70" transform="matrix(-1 0 0 1 342 475)" stroke="#1C1D26" stroke-width="2"/>
<rect width="72" height="70" transform="matrix(-1 0 0 1 270 475)" stroke="#1C1D26" stroke-width="2"/>
<rect width="72" height="70" transform="matrix(-1 0 0 1 198 475)" stroke="#1C1D26" stroke-width="2"/>
<rect width="72" height="70" transform="matrix(-1 0 0 1 126 475)" stroke="#1C1D26" stroke-width="2"/>
<rect width="72" height="70" transform="matrix(-1 0 0 1 54 475)" stroke="#1C1D26" stroke-width="2"/>
<rect width="72" height="70" transform="matrix(-1 0 0 1 558 545)" stroke="#1C1D26" stroke-width="2"/>
<rect width="72" height="70" transform="matrix(-1 0 0 1 486 545)" stroke="#1C1D26" stroke-width="2"/>
<rect width="72" height="70" transform="matrix(-1 0 0 1 414 545)" stroke="#1C1D26" stroke-width="2"/>
<rect width="72" height="70" transform="matrix(-1 0 0 1 342 545)" stroke="#1C1D26" stroke-width="2"/>
<rect width="72" height="70" transform="matrix(-1 0 0 1 270 545)" stroke="#1C1D26" stroke-width="2"/>
<rect width="72" height="70" transform="matrix(-1 0 0 1 198 545)" stroke="#1C1D26" stroke-width="2"/>
<rect width="72" height="70" transform="matrix(-1 0 0 1 126 545)" stroke="#1C1D26" stroke-width="2"/>
<rect width="72" height="70" transform="matrix(-1 0 0 1 54 545)" stroke="#1C1D26" stroke-width="2"/>
<rect width="72" height="70" transform="matrix(-1 0 0 1 558 125)" stroke="#1C1D26" stroke-width="2"/>
<rect width="72" height="70" transform="matrix(-1 0 0 1 486 125)" stroke="#1C1D26" stroke-width="2"/>
<rect width="72" height="70" transform="matrix(-1 0 0 1 414 125)" stroke="#1C1D26" stroke-width="2"/>
<rect width="72" height="70" transform="matrix(-1 0 0 1 342 125)" stroke="#1C1D26" stroke-width="2"/>
<rect width="72" height="70" transform="matrix(-1 0 0 1 270 125)" stroke="#1C1D26" stroke-width="2"/>
<rect width="72" height="70" transform="matrix(-1 0 0 1 198 125)" stroke="#1C1D26" stroke-width="2"/>
<rect width="72" height="70" transform="matrix(-1 0 0 1 126 125)" stroke="#1C1D26" stroke-width="2"/>
<rect width="72" height="70" transform="matrix(-1 0 0 1 54 125)" stroke="#1C1D26" stroke-width="2"/>
<rect width="72" height="70" transform="matrix(-1 0 0 1 558 55)" stroke="#1C1D26" stroke-width="2"/>
<rect width="72" height="70" transform="matrix(-1 0 0 1 486 55)" stroke="#1C1D26" stroke-width="2"/>
<rect width="72" height="70" transform="matrix(-1 0 0 1 414 55)" stroke="#1C1D26" stroke-width="2"/>
<rect width="72" height="70" transform="matrix(-1 0 0 1 342 55)" stroke="#1C1D26" stroke-width="2"/>
<rect width="72" height="70" transform="matrix(-1 0 0 1 270 55)" stroke="#1C1D26" stroke-width="2"/>
<rect width="72" height="70" transform="matrix(-1 0 0 1 198 55)" stroke="#1C1D26" stroke-width="2"/>
<rect width="72" height="70" transform="matrix(-1 0 0 1 126 55)" stroke="#1C1D26" stroke-width="2"/>
<rect width="72" height="70" transform="matrix(-1 0 0 1 54 55)" stroke="#1C1D26" stroke-width="2"/>
<rect width="72" height="70" transform="matrix(-1 0 0 1 558 -15)" stroke="#1C1D26" stroke-width="2"/>
<rect width="72" height="70" transform="matrix(-1 0 0 1 486 -15)" stroke="#1C1D26" stroke-width="2"/>
<rect width="72" height="70" transform="matrix(-1 0 0 1 414 -15)" stroke="#1C1D26" stroke-width="2"/>
<rect width="72" height="70" transform="matrix(-1 0 0 1 342 -15)" stroke="#1C1D26" stroke-width="2"/>
<rect width="72" height="70" transform="matrix(-1 0 0 1 270 -15)" stroke="#1C1D26" stroke-width="2"/>
<rect width="72" height="70" transform="matrix(-1 0 0 1 198 -15)" stroke="#1C1D26" stroke-width="2"/>
<rect width="72" height="70" transform="matrix(-1 0 0 1 126 -15)" stroke="#1C1D26" stroke-width="2"/>
<rect width="72" height="70" transform="matrix(-1 0 0 1 54 -15)" stroke="#1C1D26" stroke-width="2"/>
</g>
<defs>
<radialGradient id="paint0_radial_3644_46397" cx="0" cy="0" r="1" gradientUnits="userSpaceOnUse" gradientTransform="translate(400 300) rotate(90) scale(300 400)">
<stop stop-color="#D9D9D9"/>
<stop offset="1" stop-color="#D9D9D9" stop-opacity="0"/>
</radialGradient>
</defs>
</svg>
